<svg width="42" height="14" viewBox="0 0 42 14" fill="none" xmlns="http://www.w3.org/2000/svg">
<path d="M0.631055 12L1.48605 2.295H1.29105L1.44105 1.5H3.28605L4.21605 12H3.52605L3.33105 9.885H1.51605L1.32105 12H0.631055ZM1.57605 9.09H3.27105L2.65605 2.295H2.19105L1.57605 9.09ZM7.94754 10.545C7.94754 11.365 7.60254 11.86 6.91254 12.03V12.18H8.24754L7.94754 13.02H7.51254C7.18254 13.02 6.90254 12.935 6.67254 12.765C6.44254 12.605 6.28254 12.385 6.19254 12.105C5.08254 12.105 4.52754 11.585 4.52754 10.545V3C4.52754 1.96 5.08754 1.44 6.20754 1.44H6.26754C7.38754 1.44 7.94754 1.96 7.94754 3V10.545ZM6.20754 2.235C5.89754 2.235 5.67254 2.3 5.53254 2.43C5.39254 2.56 5.32254 2.75 5.32254 3V10.545C5.32254 10.795 5.39254 10.985 5.53254 11.115C5.67254 11.245 5.89754 11.31 6.20754 11.31H6.26754C6.58754 11.31 6.81254 11.245 6.94254 11.115C7.08254 10.985 7.15254 10.795 7.15254 10.545V3C7.15254 2.74 7.08254 2.55 6.94254 2.43C6.81254 2.3 6.58754 2.235 6.26754 2.235H6.20754ZM12.1709 10.545C12.1709 11.585 11.6109 12.105 10.4909 12.105H10.4309C9.31086 12.105 8.75086 11.585 8.75086 10.545V2.295H8.48086L8.63086 1.5H9.54586V10.545C9.54586 10.795 9.61586 10.985 9.75586 11.115C9.89586 11.245 10.1209 11.31 10.4309 11.31H10.4909C10.8109 11.31 11.0359 11.245 11.1659 11.115C11.3059 10.985 11.3759 10.795 11.3759 10.545V1.5H12.1709V10.545ZM12.9696 12V2.295H12.6996L12.8496 1.5H13.7646V12H12.9696ZM18.7466 -1.78814e-07H19.3466L18.9416 1.2H18.3416L18.7466 -1.78814e-07ZM20.4266 11.205L20.3366 12H17.3366V2.295H17.0666L17.2166 1.5H20.4266L20.3366 2.295H18.1316V6.345H20.4266L20.3366 7.14H18.1316V11.205H20.4266ZM24.512 9V10.545C24.512 11.055 24.772 11.31 25.292 11.31H25.562C26.082 11.31 26.342 11.11 26.342 10.71L26.327 7.725L24.077 6.675C23.837 6.565 23.717 6.365 23.717 6.075V2.835C23.717 1.905 24.242 1.44 25.292 1.44H25.697C26.657 1.49 27.137 2.01 27.137 3V5.085L26.342 4.995V3C26.342 2.49 26.082 2.235 25.562 2.235H25.292C24.772 2.235 24.512 2.435 24.512 2.835L24.527 6.045L26.777 7.11C27.017 7.22 27.137 7.42 27.137 7.71V10.71C27.137 11.64 26.612 12.105 25.562 12.105H25.157C24.197 12.055 23.717 11.535 23.717 10.545V9H24.512ZM31.0157 11.205L30.9257 12H27.9257V2.295H27.6557L27.8057 1.5H31.0157L30.9257 2.295H28.7207V6.345H31.0157L30.9257 7.14H28.7207V11.205H31.0157ZM31.8807 12V2.295H31.6107L31.7607 1.5H33.1407L35.0007 8.985V1.5H35.7957V12H35.0007L32.6757 2.76V12H31.8807ZM36.3293 12L37.1843 2.295H36.9893L37.1393 1.5H38.9843L39.9143 12H39.2243L39.0293 9.885H37.2143L37.0193 12H36.3293ZM37.2743 9.09H38.9693L38.3543 2.295H37.8893L37.2743 9.09ZM40.5673 12V2.295H40.2973L40.4473 1.5H41.3623V12H40.5673Z" fill="black"/>
</svg>
