<svg width="134" height="24" viewBox="0 0 134 24" fill="none" xmlns="http://www.w3.org/2000/svg">
<path d="M7.38913 19.896C7.38913 22.1147 6.19446 23.224 3.80513 23.224H3.67712C1.28779 23.224 0.093125 22.1147 0.093125 19.896V3.8C0.093125 1.58133 1.28779 0.471998 3.67712 0.471998H3.80513C6.19446 0.471998 7.38913 1.58133 7.38913 3.8V19.896ZM3.67712 2.168C3.01579 2.168 2.53579 2.30667 2.23713 2.584C1.93846 2.86133 1.78913 3.26667 1.78913 3.8V19.896C1.78913 20.4293 1.93846 20.8347 2.23713 21.112C2.53579 21.3893 3.01579 21.528 3.67712 21.528H3.80513C4.48779 21.528 4.96779 21.3893 5.24513 21.112C5.54379 20.8347 5.69313 20.4293 5.69313 19.896V3.8C5.69313 3.24533 5.54379 2.84 5.24513 2.584C4.96779 2.30667 4.48779 2.168 3.80513 2.168H3.67712ZM10.6641 16.6V19.896C10.6641 20.984 11.2188 21.528 12.3281 21.528H12.9041C14.0135 21.528 14.5681 21.1013 14.5681 20.248L14.5361 13.88L9.73613 11.64C9.22413 11.4053 8.96813 10.9787 8.96813 10.36V3.448C8.96813 1.464 10.0881 0.471998 12.3281 0.471998H13.1921C15.2401 0.578665 16.2641 1.688 16.2641 3.8V8.248L14.5681 8.056V3.8C14.5681 2.712 14.0135 2.168 12.9041 2.168H12.3281C11.2188 2.168 10.6641 2.59467 10.6641 3.448L10.6961 10.296L15.4961 12.568C16.0081 12.8027 16.2641 13.2293 16.2641 13.848V20.248C16.2641 22.232 15.1441 23.224 12.9041 23.224H12.0401C9.99213 23.1173 8.96813 22.008 8.96813 19.896V16.6H10.6641ZM30.8006 19.896C30.8006 22.1147 29.6806 23.224 27.4406 23.224H23.6966V2.296H23.1206L23.4406 0.599998H27.4406C29.6806 0.599998 30.8006 1.70933 30.8006 3.928V19.896ZM27.4406 2.296H25.3926V21.528H27.4406C28.55 21.528 29.1046 20.984 29.1046 19.896V3.928C29.1046 2.84 28.55 2.296 27.4406 2.296ZM31.9331 2.296L32.2531 0.599998H36.0931C38.3331 0.599998 39.4531 1.70933 39.4531 3.928V12.92C39.4531 14.2 38.9625 15.0747 37.9811 15.544L40.1251 23H38.3971L36.3811 15.896C36.2958 15.896 36.1998 15.896 36.0931 15.896H34.2051V23H32.5091V2.296H31.9331ZM36.0931 2.296H34.2051V14.2H36.0931C37.2025 14.2 37.7571 13.7733 37.7571 12.92V3.928C37.7571 2.84 37.2025 2.296 36.0931 2.296ZM41.0931 23L42.9171 2.296H42.5011L42.8211 0.599998H46.7571L48.7411 23H47.2691L46.8531 18.488H42.9811L42.5651 23H41.0931ZM43.1091 16.792H46.7251L45.4131 2.296H44.4211L43.1091 16.792ZM56.2066 23L52.1426 11.96V23H50.4466V2.296H49.8706L50.1906 0.599998H52.1426V8.952L55.8866 0.599998H57.4866L53.1346 10.296L57.8066 23H56.2066ZM65.7886 21.304L65.5966 23H59.1966V2.296H58.6206L58.9406 0.599998H65.7886L65.5966 2.296H60.8926V10.936H65.7886L65.5966 12.632H60.8926V21.304H65.7886ZM80.3319 19.896C80.3319 22.1147 79.2119 23.224 76.9719 23.224H73.2279V2.296H72.6519L72.9719 0.599998H76.9719C79.2119 0.599998 80.3319 1.70933 80.3319 3.928V19.896ZM76.9719 2.296H74.9239V21.528H76.9719C78.0812 21.528 78.6359 20.984 78.6359 19.896V3.928C78.6359 2.84 78.0812 2.296 76.9719 2.296ZM89.2329 19.896C89.2329 22.1147 88.0382 23.224 85.6489 23.224H85.5209C83.1315 23.224 81.9369 22.1147 81.9369 19.896V3.8C81.9369 1.58133 83.1315 0.471998 85.5209 0.471998H85.6489C88.0382 0.471998 89.2329 1.58133 89.2329 3.8V19.896ZM85.5209 2.168C84.8595 2.168 84.3795 2.30667 84.0809 2.584C83.7822 2.86133 83.6329 3.26667 83.6329 3.8V19.896C83.6329 20.4293 83.7822 20.8347 84.0809 21.112C84.3795 21.3893 84.8595 21.528 85.5209 21.528H85.6489C86.3315 21.528 86.8115 21.3893 87.0889 21.112C87.3875 20.8347 87.5369 20.4293 87.5369 19.896V3.8C87.5369 3.24533 87.3875 2.84 87.0889 2.584C86.8115 2.30667 86.3315 2.168 85.6489 2.168H85.5209ZM97.9454 16.6V19.896C97.9454 20.984 98.5 21.528 99.6094 21.528H100.185C101.295 21.528 101.849 21.1013 101.849 20.248L101.817 13.88L97.0174 11.64C96.5054 11.4053 96.2494 10.9787 96.2494 10.36V3.448C96.2494 1.464 97.3694 0.471998 99.6094 0.471998H100.473C102.521 0.578665 103.545 1.688 103.545 3.8V8.248L101.849 8.056V3.8C101.849 2.712 101.295 2.168 100.185 2.168H99.6094C98.5 2.168 97.9454 2.59467 97.9454 3.448L97.9774 10.296L102.777 12.568C103.289 12.8027 103.545 13.2293 103.545 13.848V20.248C103.545 22.232 102.425 23.224 100.185 23.224H99.3214C97.2734 23.1173 96.2494 22.008 96.2494 19.896V16.6H97.9454ZM111.82 21.304L111.628 23H105.228V2.296H104.652L104.972 0.599998H111.82L111.628 2.296H106.924V10.936H111.82L111.628 12.632H106.924V21.304H111.82ZM113.665 23V2.296H113.089L113.409 0.599998H116.353L120.321 16.568V0.599998H122.017V23H120.321L115.361 3.288V23H113.665ZM123.156 23L124.98 2.296H124.564L124.884 0.599998H128.82L130.804 23H129.332L128.916 18.488H125.044L124.628 23H123.156ZM125.172 16.792H128.788L127.476 2.296H126.484L125.172 16.792ZM132.197 23V2.296H131.621L131.941 0.599998H133.893V23H132.197Z" fill="white"/>
</svg>
